<svg width="24" height="24" enable-background="new" version="1.1" xmlns="http://www.w3.org/2000/svg">
 <path d="m12 20c4.4182 0 7.9999-3.5817 7.9999-8 0-4.4183-3.5817-8-7.9999-8-4.4183 0-8.0001 3.5817-8.0001 8 0 4.4183 3.5817 8 8.0001 8" fill="#a40" fill-rule="evenodd"/>
 <path d="m12 19.429c4.1026 0 7.4285-3.1895 7.4285-7.1236 0-3.9342-3.3259-7.1235-7.4285-7.1235-4.1028 0-7.4286 3.1892-7.4286 7.1235 0 3.9341 3.3259 7.1236 7.4286 7.1236" fill="#d45500" fill-rule="evenodd"/>
 <path d="m8.8653 8.8024c-0.43913 0.43909-0.43913 1.1461 0 1.5853l1.5853 1.5853-1.5853 1.5853c-0.43913 0.4392-0.43913 1.1462 0 1.5853 0.43913 0.4392 1.1462 0.4392 1.5853 0l1.5853-1.5853 1.5853 1.5853c0.43913 0.4392 1.1462 0.4392 1.5853 0 0.43913-0.43909 0.43913-1.1461 0-1.5853l-1.5853-1.5853 1.5853-1.5853c0.43913-0.4392 0.43913-1.1462 0-1.5853-0.43913-0.4392-1.1462-0.4392-1.5853 0l-1.5853 1.5853-1.5853-1.5853c-0.43913-0.4392-1.1462-0.4392-1.5853 0z" opacity=".5"/>
</svg>
