<svg width="24" height="24" enable-background="new" version="1.1" xmlns="http://www.w3.org/2000/svg">
 <path d="m12 20c4.4182 0 7.9999-3.5817 7.9999-8 0-4.4183-3.5817-8-7.9999-8-4.4183 0-8.0001 3.5817-8.0001 8 0 4.4183 3.5817 8 8.0001 8" fill="#333" fill-rule="evenodd"/>
 <path d="m12 19.429c4.1026 0 7.4285-3.1439 7.4285-7.0219 0-3.8781-3.3259-7.0218-7.4285-7.0218-4.1028 0-7.4286 3.1437-7.4286 7.0218 0 3.878 3.3259 7.0219 7.4286 7.0219" fill="#666" fill-rule="evenodd"/>
 <path d="m10.165 8.488 5.3503 5.3502v-4.1835c0-0.48475-0.68192-1.1667-1.1667-1.1667zm-1.6497 1.6498v4.1835c0 0.48475 0.68192 1.1667 1.1667 1.1667h4.1836z" opacity=".5"/>
</svg>
